mtllib C:/Users/Mark/Documents/Permiebot/Research/Experiments/WebGL/004-geo-experiment/assets/objects/v1-icosahedron-simplest.mtl
s 1
o 
g 
usemtl Layer_Layer0
v 0 0.525731 0.850651
v -0.850651 0 0.525731
v 0 -0.525731 0.850651
vn -0.356822 0 0.934172
f 1//1 2//1 3//1 
v 0.525731 0.850651 0
v 0.850651 0 -0.525731
v 0 0.525731 -0.850651
vn 0.57735 0.57735 -0.57735
f 4//2 5//2 6//2 
v 0.850651 0 0.525731
vn 0.356822 0 0.934172
f 7//3 1//3 3//3 
v 0.525731 -0.850651 0
vn 0.57735 -0.57735 0.57735
f 7//4 3//4 8//4 
v -0.525731 -0.850651 0
v 0 -0.525731 -0.850651
vn 0 -0.934172 -0.356822
f 9//5 10//5 8//5 
v -0.850651 0 -0.525731
vn -0.356822 0 -0.934172
f 10//6 11//6 6//6 
vn 0.57735 -0.57735 -0.57735
f 5//7 8//7 10//7 
vn 0.57735 0.57735 0.57735
f 4//8 1//8 7//8 
vn -0.57735 -0.57735 0.57735
f 3//9 2//9 9//9 
v -0.525731 0.850651 0
vn -0.934172 0.356822 0
f 12//10 11//10 2//10 
vn 0 0.934172 0.356822
f 1//11 4//11 12//11 
vn 0 -0.934172 0.356822
f 3//12 9//12 8//12 
vn 0.356822 0 -0.934172
f 5//13 10//13 6//13 
vn -0.57735 0.57735 -0.57735
f 12//14 6//14 11//14 
vn 0.934172 -0.356822 0
f 7//15 8//15 5//15 
vn -0.57735 0.57735 0.57735
f 1//16 12//16 2//16 
vn 0 0.934172 -0.356822
f 4//17 6//17 12//17 
vn 0.934172 0.356822 0
f 4//18 7//18 5//18 
vn -0.934172 -0.356822 0
f 11//19 9//19 2//19 
vn -0.57735 -0.57735 -0.57735
f 11//20 10//20 9//20 
