mtllib C:/Users/Mark/Documents/Permiebot/Research/Experiments/WebGL/004-geo-experiment/assets/objects/v2-icosahedron-simplest.mtl
s 1
o 
g Group1 
usemtl Layer_Layer0
v 0.5 0.309017 0.809017
v 0.309017 0.809017 0.5
v 0 0.525731 0.850651
vn 0.315094 0.583129 0.748783
f 1//1 2//1 3//1 
v 0.809017 0.5 0.309017
v 0.850651 0 0.525731
vn 0.748783 0.315094 0.583129
f 4//2 1//2 5//2 
v 0.525731 0.850651 0
vn 0.583129 0.748783 0.315094
f 2//3 4//3 6//3 
vn 0.57735 0.57735 0.57735
f 2//4 1//4 4//4 
v -0.309017 0.809017 0.5
vn 0 0.777867 0.628428
f 3//5 2//5 7//5 
v 0 1 0
vn 0.268035 0.943522 0.194739
f 2//6 6//6 8//6 
v -0.525731 0.850651 0
vn -0.268035 0.943522 0.194739
f 7//7 8//7 9//7 
vn 0 0.934172 0.356822
f 2//8 8//8 7//8 
v -0.5 0.309017 0.809017
vn -0.315094 0.583129 0.748783
f 3//9 7//9 10//9 
v -0.809017 0.5 0.309017
vn -0.583129 0.748783 0.315094
f 7//10 9//10 11//10 
v -0.850651 0 0.525731
vn -0.748783 0.315094 0.583129
f 11//11 12//11 10//11 
vn -0.57735 0.57735 0.57735
f 7//12 11//12 10//12 
v 0 0 1
vn -0.194739 0.268035 0.943522
f 3//13 10//13 13//13 
v -0.5 -0.309017 0.809017
vn -0.628428 0 0.777867
f 10//14 12//14 14//14 
v 0 -0.525731 0.850651
vn -0.194739 -0.268035 0.943522
f 13//15 14//15 15//15 
vn -0.356822 0 0.934172
f 13//16 10//16 14//16 
vn 0.194739 0.268035 0.943522
f 1//17 3//17 13//17 
v 0.5 -0.309017 0.809017
vn 0.194739 -0.268035 0.943522
f 16//18 13//18 15//18 
vn 0.628428 0 0.777867
f 5//19 1//19 16//19 
vn 0.356822 0 0.934172
f 1//20 13//20 16//20 
v 1 0 0
vn 0.943522 0.194739 0.268035
f 4//21 5//21 17//21 
v 0.809017 0.5 -0.309017
v 0.850651 0 -0.525731
vn 0.943522 0.194739 -0.268035
f 18//22 17//22 19//22 
vn 0.777867 0.628428 0
f 6//23 4//23 18//23 
vn 0.934172 0.356822 0
f 4//24 17//24 18//24 
v 0.309017 0.809017 -0.5
vn 0.268035 0.943522 -0.194739
f 6//25 20//25 8//25 
v 0 0.525731 -0.850651
v -0.309017 0.809017 -0.5
vn 0 0.777867 -0.628428
f 20//26 21//26 22//26 
vn -0.268035 0.943522 -0.194739
f 8//27 22//27 9//27 
vn 0 0.934172 -0.356822
f 8//28 20//28 22//28 
v -0.809017 0.5 -0.309017
vn -0.777867 0.628428 0
f 9//29 23//29 11//29 
v -0.850651 0 -0.525731
v -1 0 0
vn -0.943522 0.194739 -0.268035
f 23//30 24//30 25//30 
vn -0.943522 0.194739 0.268035
f 11//31 25//31 12//31 
vn -0.934172 0.356822 0
f 23//32 25//32 11//32 
v -0.809017 -0.5 0.309017
vn -0.748783 -0.315094 0.583129
f 12//33 26//33 14//33 
v -0.309017 -0.809017 0.5
v -0.525731 -0.850651 0
vn -0.583129 -0.748783 0.315094
f 27//34 26//34 28//34 
vn -0.315094 -0.583129 0.748783
f 15//35 14//35 27//35 
vn -0.57735 -0.57735 0.57735
f 14//36 26//36 27//36 
v 0.309017 -0.809017 0.5
vn 0.315094 -0.583129 0.748783
f 16//37 15//37 29//37 
v 0.525731 -0.850651 0
v 0.809017 -0.5 0.309017
vn 0.583129 -0.748783 0.315094
f 29//38 30//38 31//38 
vn 0.748783 -0.315094 0.583129
f 5//39 16//39 31//39 
vn 0.57735 -0.57735 0.57735
f 16//40 29//40 31//40 
vn 0.943522 -0.194739 0.268035
f 5//41 31//41 17//41 
v 0.809017 -0.5 -0.309017
vn 0.777867 -0.628428 0
f 31//42 30//42 32//42 
vn 0.943522 -0.194739 -0.268035
f 17//43 32//43 19//43 
vn 0.934172 -0.356822 0
f 17//44 31//44 32//44 
vn 0.583129 0.748783 -0.315094
f 6//45 18//45 20//45 
v 0.5 0.309017 -0.809017
vn 0.748783 0.315094 -0.583129
f 18//46 19//46 33//46 
vn 0.315094 0.583129 -0.748783
f 33//47 21//47 20//47 
vn 0.57735 0.57735 -0.57735
f 20//48 18//48 33//48 
vn -0.583129 0.748783 -0.315094
f 9//49 22//49 23//49 
v -0.5 0.309017 -0.809017
vn -0.315094 0.583129 -0.748783
f 21//50 34//50 22//50 
vn -0.748783 0.315094 -0.583129
f 23//51 34//51 24//51 
vn -0.57735 0.57735 -0.57735
f 22//52 34//52 23//52 
vn -0.943522 -0.194739 0.268035
f 25//53 26//53 12//53 
v -0.809017 -0.5 -0.309017
vn -0.943522 -0.194739 -0.268035
f 24//54 35//54 25//54 
vn -0.777867 -0.628428 0
f 35//55 28//55 26//55 
vn -0.934172 -0.356822 0
f 25//56 35//56 26//56 
vn 0 -0.777867 0.628428
f 15//57 27//57 29//57 
v 0 -1 0
vn -0.268035 -0.943522 0.194739
f 27//58 28//58 36//58 
vn 0.268035 -0.943522 0.194739
f 29//59 36//59 30//59 
vn 0 -0.934172 0.356822
f 27//60 36//60 29//60 
v 0.5 -0.309017 -0.809017
v 0.309017 -0.809017 -0.5
v 0 -0.525731 -0.850651
vn 0.315094 -0.583129 -0.748783
f 37//61 38//61 39//61 
vn 0.748783 -0.315094 -0.583129
f 19//62 32//62 37//62 
vn 0.583129 -0.748783 -0.315094
f 30//63 38//63 32//63 
vn 0.57735 -0.57735 -0.57735
f 37//64 32//64 38//64 
v 0 0 -1
vn 0.194739 -0.268035 -0.943522
f 37//65 39//65 40//65 
vn 0.194739 0.268035 -0.943522
f 33//66 40//66 21//66 
vn 0.628428 0 -0.777867
f 19//67 37//67 33//67 
vn 0.356822 0 -0.934172
f 37//68 40//68 33//68 
v -0.5 -0.309017 -0.809017
vn -0.194739 -0.268035 -0.943522
f 39//69 41//69 40//69 
vn -0.628428 0 -0.777867
f 41//70 24//70 34//70 
vn -0.194739 0.268035 -0.943522
f 40//71 34//71 21//71 
vn -0.356822 0 -0.934172
f 40//72 41//72 34//72 
v -0.309017 -0.809017 -0.5
vn -0.315094 -0.583129 -0.748783
f 39//73 42//73 41//73 
vn -0.583129 -0.748783 -0.315094
f 28//74 35//74 42//74 
vn -0.748783 -0.315094 -0.583129
f 24//75 41//75 35//75 
vn -0.57735 -0.57735 -0.57735
f 41//76 42//76 35//76 
vn 0 -0.777867 -0.628428
f 42//77 39//77 38//77 
vn 0.268035 -0.943522 -0.194739
f 36//78 38//78 30//78 
vn -0.268035 -0.943522 -0.194739
f 28//79 42//79 36//79 
vn 0 -0.934172 -0.356822
f 36//80 42//80 38//80 
